<svg width="23" height="23" viewBox="0 0 23 23" fill="none" xmlns="http://www.w3.org/2000/svg">
<g id="skill-icons:instagram" clip-path="url(#clip0_591_69364)">
<g id="Group">
<path id="Vector" d="M17.0326 0H5.21405C2.33441 0 0 2.33441 0 5.21405V17.0326C0 19.9122 2.33441 22.2466 5.21405 22.2466H17.0326C19.9122 22.2466 22.2466 19.9122 22.2466 17.0326V5.21405C22.2466 2.33441 19.9122 0 17.0326 0Z" fill="url(#paint0_radial_591_69364)"/>
<path id="Vector_2" d="M17.0326 0H5.21405C2.33441 0 0 2.33441 0 5.21405V17.0326C0 19.9122 2.33441 22.2466 5.21405 22.2466H17.0326C19.9122 22.2466 22.2466 19.9122 22.2466 17.0326V5.21405C22.2466 2.33441 19.9122 0 17.0326 0Z" fill="url(#paint1_radial_591_69364)"/>
<path id="Vector_3" d="M11.1242 2.43311C8.76416 2.43311 8.46792 2.44345 7.54103 2.48559C6.61589 2.528 5.98438 2.67443 5.43186 2.88933C4.86023 3.11128 4.37541 3.40822 3.89242 3.89139C3.40899 4.37447 3.11205 4.85929 2.88941 5.43066C2.67389 5.98335 2.52729 6.61512 2.48566 7.53983C2.44421 8.46681 2.43335 8.76314 2.43335 11.1233C2.43335 13.4834 2.44378 13.7787 2.48584 14.7056C2.52842 15.6307 2.67485 16.2622 2.88958 16.8148C3.1117 17.3864 3.40864 17.8712 3.89181 18.3542C4.37471 18.8376 4.85953 19.1353 5.43073 19.3572C5.98368 19.5721 6.61528 19.7186 7.54025 19.761C8.46722 19.8031 8.76321 19.8134 11.1232 19.8134C13.4835 19.8134 13.7788 19.8031 14.7057 19.761C15.6308 19.7186 16.263 19.5721 16.816 19.3572C17.3873 19.1353 17.8715 18.8376 18.3543 18.3542C18.8377 17.8712 19.1346 17.3864 19.3573 16.815C19.5709 16.2622 19.7176 15.6306 19.761 14.7058C19.8027 13.7789 19.8135 13.4834 19.8135 11.1233C19.8135 8.76314 19.8027 8.46698 19.761 7.54001C19.7176 6.61486 19.5709 5.98344 19.3573 5.43092C19.1346 4.85929 18.8377 4.37447 18.3543 3.89139C17.8709 3.40805 17.3875 3.11111 16.8154 2.88942C16.2614 2.67443 15.6296 2.52791 14.7044 2.48559C13.7775 2.44345 13.4824 2.43311 11.1215 2.43311H11.1242ZM10.3446 3.99915C10.576 3.9988 10.8342 3.99915 11.1242 3.99915C13.4446 3.99915 13.7195 4.00749 14.6358 4.04911C15.4831 4.08787 15.943 4.22943 16.2493 4.3484C16.6548 4.50586 16.944 4.69418 17.2479 4.99842C17.5521 5.30257 17.7403 5.59221 17.8982 5.99778C18.0172 6.30367 18.1589 6.76355 18.1975 7.61083C18.2391 8.52694 18.2482 8.80207 18.2482 11.1213C18.2482 13.4405 18.2391 13.7157 18.1975 14.6317C18.1588 15.479 18.0172 15.9389 17.8982 16.2449C17.7408 16.6504 17.5521 16.9392 17.2479 17.2432C16.9438 17.5473 16.655 17.7356 16.2493 17.8931C15.9433 18.0126 15.4831 18.1538 14.6358 18.1926C13.7197 18.2342 13.4446 18.2432 11.1242 18.2432C8.80379 18.2432 8.52875 18.2342 7.61273 18.1926C6.76544 18.1535 6.30556 18.0119 5.99898 17.8929C5.5935 17.7354 5.30377 17.5472 4.99962 17.243C4.69547 16.9389 4.50724 16.6499 4.34934 16.2442C4.23037 15.9382 4.08864 15.4783 4.05005 14.631C4.00843 13.7149 4.00008 13.4398 4.00008 11.1191C4.00008 8.79851 4.00843 8.52477 4.05005 7.60866C4.08881 6.76138 4.23037 6.3015 4.34934 5.99517C4.50689 5.5896 4.69547 5.29996 4.99971 4.99581C5.30386 4.69166 5.5935 4.50334 5.99907 4.34553C6.30539 4.22604 6.76544 4.08483 7.61273 4.0459C8.41439 4.00966 8.72506 3.9988 10.3446 3.99697V3.99915ZM15.763 5.44205C15.1873 5.44205 14.7202 5.90871 14.7202 6.48451C14.7202 7.06023 15.1873 7.52732 15.763 7.52732C16.3387 7.52732 16.8058 7.06023 16.8058 6.48451C16.8058 5.90879 16.3387 5.4417 15.763 5.4417V5.44205ZM11.1242 6.66048C8.65971 6.66048 6.66151 8.65868 6.66151 11.1233C6.66151 13.5879 8.65971 15.5851 11.1242 15.5851C13.5888 15.5851 15.5863 13.5879 15.5863 11.1233C15.5863 8.65877 13.5886 6.66048 11.124 6.66048H11.1242ZM11.1242 8.22652C12.724 8.22652 14.021 9.52335 14.021 11.1233C14.021 12.723 12.724 14.02 11.1242 14.02C9.52437 14.02 8.22755 12.723 8.22755 11.1233C8.22755 9.52335 9.52437 8.22652 11.1242 8.22652Z" fill="white"/>
</g>
</g>
<defs>
<radialGradient id="paint0_radial_591_69364" cx="0" cy="0" r="1" gradientUnits="userSpaceOnUse" gradientTransform="translate(5.90926 23.96) rotate(-90) scale(22.0481 20.5064)">
<stop stop-color="#FFDD55"/>
<stop offset="0.1" stop-color="#FFDD55"/>
<stop offset="0.5" stop-color="#FF543E"/>
<stop offset="1" stop-color="#C837AB"/>
</radialGradient>
<radialGradient id="paint1_radial_591_69364" cx="0" cy="0" r="1" gradientUnits="userSpaceOnUse" gradientTransform="translate(-3.7264 1.60254) rotate(78.681) scale(9.8556 40.6251)">
<stop stop-color="#3771C8"/>
<stop offset="0.128" stop-color="#3771C8"/>
<stop offset="1" stop-color="#6600FF" stop-opacity="0"/>
</radialGradient>
<clipPath id="clip0_591_69364">
<rect width="22.2466" height="22.2466" fill="white"/>
</clipPath>
</defs>
</svg>
