<svg width="25" height="20" viewBox="0 0 25 20" fill="none" xmlns="http://www.w3.org/2000/svg">
<g id="logos:twitter" clip-path="url(#clip0_591_69376)">
<path id="Vector" d="M24.4976 2.43536C23.5803 2.84175 22.6072 3.1085 21.6109 3.22675C22.6487 2.60474 23.4455 1.61976 23.8208 0.446173C22.8342 1.03161 21.7548 1.44409 20.6293 1.66579C19.7124 0.689044 18.4063 0.0786133 16.9607 0.0786133C14.185 0.0786133 11.9345 2.32895 11.9345 5.10445C11.9345 5.49842 11.979 5.88196 12.0647 6.2499C7.88765 6.04024 4.18431 4.03938 1.70536 0.998613C1.27282 1.74091 1.02498 2.60435 1.02498 3.52531C1.02498 5.26904 1.91234 6.80732 3.26086 7.70866C2.46273 7.68366 1.68215 7.4681 0.984306 7.07995C0.984019 7.10101 0.984019 7.12206 0.984019 7.14321C0.984019 9.57833 2.71646 11.6097 5.0156 12.0714C4.27549 12.2727 3.49917 12.3022 2.74593 12.1576C3.38545 14.1543 5.24163 15.6073 7.44086 15.648C5.72077 16.9959 3.55359 17.7995 1.19895 17.7995C0.793206 17.7995 0.393206 17.7756 0 17.7292C2.22421 19.1553 4.86603 19.9873 7.70431 19.9873C16.949 19.9873 22.0042 12.3289 22.0042 5.68732C22.0042 5.46933 21.9994 5.25258 21.9897 5.03708C22.9736 4.32578 23.8229 3.44475 24.4976 2.43536Z" fill="#55ACEE"/>
</g>
<defs>
<clipPath id="clip0_591_69376">
<rect width="24.4976" height="20" fill="white"/>
</clipPath>
</defs>
</svg>
