<svg width="25" height="25" viewBox="0 0 25 25" fill="none" xmlns="http://www.w3.org/2000/svg">
<g id="logos:whatsapp-icon" clip-path="url(#clip0_591_69354)">
<path id="Vector" d="M0.52925 12.3501C0.528668 14.4506 1.07751 16.5016 2.12111 18.3094L0.429443 24.4859L6.75037 22.8285C8.49866 23.7803 10.4575 24.279 12.448 24.2791H12.4533C19.0245 24.2791 24.3736 18.9319 24.3764 12.3595C24.3777 9.17476 23.1386 6.17999 20.8872 3.92689C18.6362 1.67398 15.6425 0.432606 12.4528 0.431152C5.8808 0.431152 0.53206 5.77805 0.529346 12.3501" fill="url(#paint0_linear_591_69354)"/>
<path id="Vector_2" d="M0.103682 12.3465C0.103004 14.5226 0.671512 16.6469 1.75233 18.5194L0 24.9173L6.54758 23.2006C8.35165 24.1842 10.3828 24.7028 12.4497 24.7036H12.455C19.262 24.7036 24.8033 19.1641 24.8062 12.3564C24.8074 9.05717 23.5236 5.95475 21.1919 3.62093C18.8598 1.2874 15.759 0.00135659 12.455 0C5.6469 0 0.106395 5.53876 0.103682 12.3465ZM4.00291 18.1969L3.75843 17.8088C2.73072 16.1747 2.18828 14.2863 2.18905 12.3473C2.19128 6.68886 6.79632 2.08527 12.4589 2.08527C15.2012 2.08643 17.7783 3.15543 19.7167 5.09496C21.6549 7.03469 22.7215 9.61318 22.7208 12.3556C22.7183 18.0141 18.1132 22.6182 12.455 22.6182H12.451C10.6086 22.6173 8.80174 22.1225 7.22597 21.1875L6.85097 20.9651L2.9655 21.9838L4.00291 18.1968V18.1969Z" fill="url(#paint1_linear_591_69354)"/>
<path id="Vector_3" d="M9.36791 7.18495C9.13671 6.67109 8.89339 6.66072 8.67353 6.65171C8.49349 6.64396 8.28768 6.64454 8.08206 6.64454C7.87624 6.64454 7.54184 6.72196 7.25919 7.03059C6.97624 7.3395 6.17896 8.08601 6.17896 9.60433C6.17896 11.1227 7.28487 12.5901 7.43903 12.7962C7.59339 13.0019 9.57401 16.2174 12.7108 17.4544C15.3178 18.4824 15.8483 18.278 16.4141 18.2264C16.98 18.1751 18.2401 17.4801 18.4972 16.7595C18.7544 16.0389 18.7544 15.4213 18.6773 15.2922C18.6002 15.1636 18.3944 15.0864 18.0857 14.9321C17.777 14.7778 16.2598 14.0312 15.9769 13.9282C15.694 13.8253 15.4883 13.7739 15.2824 14.0829C15.0766 14.3914 14.4856 15.0864 14.3055 15.2922C14.1256 15.4985 13.9454 15.5242 13.6369 15.3698C13.3281 15.215 12.3342 14.8895 11.155 13.8382C10.2376 13.0202 9.6182 12.01 9.43816 11.701C9.25812 11.3925 9.41888 11.2253 9.57363 11.0715C9.71229 10.9332 9.88235 10.7111 10.0368 10.531C10.1907 10.3507 10.242 10.2222 10.3449 10.0163C10.4479 9.81034 10.3964 9.6301 10.3194 9.47574C10.242 9.32138 9.64233 7.79512 9.36791 7.18495Z" fill="white"/>
</g>
<defs>
<linearGradient id="paint0_linear_591_69354" x1="1197.78" y1="2405.91" x2="1197.78" y2="0.431152" gradientUnits="userSpaceOnUse">
<stop stop-color="#1FAF38"/>
<stop offset="1" stop-color="#60D669"/>
</linearGradient>
<linearGradient id="paint1_linear_591_69354" x1="1240.31" y1="2491.73" x2="1240.31" y2="0" gradientUnits="userSpaceOnUse">
<stop stop-color="#F9F9F9"/>
<stop offset="1" stop-color="white"/>
</linearGradient>
<clipPath id="clip0_591_69354">
<rect width="24.8062" height="25" fill="white"/>
</clipPath>
</defs>
</svg>
