<svg width="28" height="19" viewBox="0 0 28 19" fill="none" xmlns="http://www.w3.org/2000/svg">
<g id="logos:youtube-icon" clip-path="url(#clip0_591_69371)">
<path id="Vector" d="M26.4254 2.96347C26.2704 2.39068 25.9681 1.86849 25.5485 1.44889C25.1289 1.02928 24.6068 0.72692 24.034 0.5719C21.937 0 13.4974 0 13.4974 0C13.4974 0 5.0574 0.0173111 2.96043 0.589211C2.38763 0.744241 1.86544 1.04662 1.44586 1.46624C1.02628 1.88586 0.723944 2.40808 0.568965 2.98089C-0.0653186 6.70679 -0.311369 12.3842 0.586381 15.9611C0.741376 16.5338 1.04372 17.056 1.4633 17.4756C1.88288 17.8952 2.40506 18.1976 2.97785 18.3526C5.07481 18.9245 13.5146 18.9245 13.5146 18.9245C13.5146 18.9245 21.9543 18.9245 24.0512 18.3526C24.624 18.1976 25.1462 17.8953 25.5658 17.4757C25.9854 17.0561 26.2877 16.5339 26.4427 15.9611C27.1118 12.2299 27.3179 6.55595 26.4254 2.96347Z" fill="#FF0000"/>
<path id="Vector_2" d="M10.811 13.5172L17.8123 9.46197L10.811 5.40674V13.5172Z" fill="white"/>
</g>
<defs>
<clipPath id="clip0_591_69371">
<rect width="27.0222" height="19" fill="white"/>
</clipPath>
</defs>
</svg>
